<svg id="Calque_1" xmlns="http://www.w3.org/2000/svg" viewBox="0 0 570 291"><style>.st0{fill:#fff}.st1{fill:#464646}.st2{fill:#ffcd02}.st3{opacity:5e-2;fill:#464646;enable-background:new}.st4{fill:#acebe8}.st5{fill:#aceae8}.st6{fill:none;stroke:#464646;stroke-width:2;stroke-linecap:round;stroke-linejoin:round}.st7{enable-background:new}</style><title>Banana</title><g id="Filter"><g id="web_ipadP_search_no_results" transform="translate(-102 -554)"><g id="Banana" transform="translate(98 536)"><g transform="rotate(7 11.441 306.8)" id="Crying-babana"><path id="Fill-1" class="st0" d="M231.2 204.2s-6.3-13-16.6-38.5c-13.4-33.1-46.8-34.8-46.8-34.8l-7.1 22.6c.4.5 28.5-8.9 40.7 6.5 13.5 16.9 29.8 44.2 29.8 44.2"/><path id="Fill-3" class="st1" d="M178.7 149.3c8.1 0 17.3 2.2 23.6 10 6.8 8.4 14.3 19.6 20.1 28.6-2.5-5.8-5.5-13.1-8.7-21.8-11-29.8-39.9-33.6-45-34l-6.2 19.8c3-1.1 9.2-2.6 16.2-2.6m52.5 55.9c-.4 0-.7-.2-.9-.5-.2-.3-16.3-27.5-29.7-44.1-12.9-16.1-39.2-6.3-39.5-6.2-.4.1-.8.1-1.1-.2-.3-.3-.4-.7-.3-1.1l7.1-22.6c.1-.5.6-.8 1-.7.4 0 35.2 1.5 47.8 35.5 9.4 25.4 16.4 38.2 16.5 38.4.3.5.1 1.1-.4 1.4-.1.1-.3.1-.5.1"/><path id="Fill-5" class="st2" d="M121 201.4s18.2-24.3 36.8-37.5c18.6-13.3 29.8-11.9 44.5 4.6 13 14.5 21.7 35.3 25.3 41.4.6 1.1 1.9 1.5 3.1 1.1l.3-.1c1.2-.5 1.9-1.8 1.5-3.1-4.2-14-15.4-29.7-25.3-45.1-10.4-16.2-36-21.2-52.2-3.5-16.3 17.5-34 42.2-34 42.2"/><path id="Fill-7" class="st1" d="M179.8 154.1c1.1 0 2.2.1 3.3.2 7.9 1.1 15.3 6.1 22.8 15.4 11.2 13.9 19.7 32.1 22.8 39.2.3.7 1.1 1.1 1.9.8.7-.3 1.1-1 .9-1.8-4.1-14.3-13.7-31.5-25.1-44.7-7.4-8.6-17.7-13.9-27.6-14h-.5c-8.5 0-16.3 3.6-22.6 10.5-4.9 5.4-10 11.4-14.7 17.2 5.1-5 10.6-10 16.2-14 8.3-5.9 15.7-8.8 22.6-8.8M230 212c-1.4 0-2.7-.8-3.3-2.1-3.1-7.1-11.5-25-22.5-38.7-14-17.4-27.7-19.3-45.8-6.4-18.2 13-36.4 37.1-36.6 37.3-.3.5-1 .6-1.5.2-.5-.3-.6-1-.2-1.5.2-.2 17.9-24.9 34-42.4 6.8-7.5 15.4-11.4 24.6-11.2 10.5.2 21.4 5.7 29.2 14.8 11.7 13.7 21.3 30.7 25.5 45.5.5 1.8-.4 3.6-2.1 4.3-.4.1-.8.2-1.3.2"/><path id="Fill-10" class="st0" d="M71.3 260.9c-19.2 10.4-37.2 16.8-53.3 20.2-5.3 1.1-10.7-.9-14-5.1-3.8-4.9-4-11.8-.4-16.8 22.8-31.8 75.4-68.6 96.5-114.8 12.5-27.4 17.7-63 18.3-91.9.1-2.3.1-4.5.1-6.7v-3.1c-.1-7.1-.4-13.7-1-19.4-1.1-11 7.1-20.8 18.2-21.5 4.5-.3 9 1 12.7 3.8 11.6 8.8 20.2 36.9 22.5 46.1 2.7 10.9 13.8 63.8-26.1 133.7-15.9 28-35.3 49.6-58.7 68"/><path id="Fill-12" class="st3" d="M44.6 294.4c-14.9-4.6-27-10.5-36.6-16.9-3.1-2.1-4.7-5.8-4-9.6.8-4.4 4.4-7.9 8.9-8.6 28.1-4.3 73.2 4 108.3-8.4 20.7-7.3 42.3-22.5 58.2-36.5l3.6-3.3c.6-.5 1.1-1 1.6-1.5 3.8-3.6 7.1-7 9.9-10.2 5.4-6.1 14.6-6.7 20.3-1.5 2.4 2.1 3.8 5.1 4.1 8.3.9 10.3-10 28.6-13.8 34.4-4.5 6.8-27.5 38.8-84.3 53.4-22.7 5.9-43.6 6.8-64.8 4.2"/><path id="Fill-15" class="st4" d="M122.5 69.6c-3.3 6.5-2.8 14.6 1.9 20.8 1.1 1.5 1 3.2.8 4.1-.4 1.8-1.6 3.6-3.2 4.9l4.2 5.6-4.2-5.6c-8.7 6.6-10.5 19-3.9 27.8 1.1 1.5 1 3.2.8 4.1-.4 1.8-1.6 3.6-3.2 4.9-4.2 3.2-7 7.8-7.7 13.1-.7 5.2.6 10.5 3.8 14.7 1.9 2.5.7 6.6-2.5 9l4.2 5.6-4.2-5.6c-8.7 6.6-10.5 19-3.9 27.8 1.1 1.5 1 3.2.8 4.1-.4 1.8-1.6 3.6-3.2 4.9l8.5 11.3c4.5-3.4 7.5-8.1 8.6-13.3 1.1-5.6 0-11-3.3-15.4-1.9-2.5-1.4-6.1 1.1-8 9.5-7.1 11.8-20 5.3-28.8-.9-1.2-1.3-2.7-1.1-4.2.2-1.5 1-2.8 2.2-3.8l-4.2-5.6 4.2 5.6c4.5-3.4 7.5-8.1 8.6-13.3 1.1-5.6 0-11-3.3-15.4-1.9-2.5-1.4-6.1 1.1-8 4.5-3.4 7.5-8.1 8.6-13.3 1.1-5.6 0-11-3.3-15.4-.9-1.2-1.3-2.7-1.1-4.2.2-1.5 2.6-5.7 2.6-5.7l-8.5 5.9-5.1-4-1.4-4.6z"/><path id="Fill-17" class="st4" d="M147.7 67.6c-3.2 6.5-2.6 14.6 2.1 20.8 1.1 1.5 1 3.2.8 4.1-.4 1.9-1.5 3.6-3.2 4.9l4.3 5.6-4.3-5.6c-8.7 6.7-10.3 19.1-3.6 27.8 1.1 1.5 1 3.2.8 4.1-.4 1.9-1.5 3.6-3.2 4.9-4.2 3.2-6.9 7.9-7.6 13.1-.7 5.3.7 10.5 3.9 14.7 1.9 2.4.8 6.6-2.4 9l4.3 5.6-4.3-5.6c-8.7 6.7-10.3 19.1-3.6 27.8 1.1 1.5 1 3.2.8 4.1-.4 1.9-1.5 3.6-3.2 4.9l3.9 7.3c4.4-3.4 11.7-6.6 13.2-9.5 2.7-5-.2-11-3.5-15.4-1.9-2.5-1.4-6.1 1-8 9.4-7.2 11.6-20.1 5-28.8-.9-1.2-1.3-2.7-1.1-4.2.2-1.5 1-2.9 2.2-3.8l-4.3-5.6 4.3 5.6c4.4-3.4 7.4-8.2 8.4-13.4 1.1-5.6-.2-11-3.5-15.4-1.9-2.5-1.4-6.1 1-8 4.4-3.4 7.4-8.2 8.4-13.4 1.1-5.6-.2-11-3.5-15.4-.9-1.2-1.3-2.7-1.1-4.2.2-1.5 2.6-5.7 2.6-5.7l-8.4 6-5.1-3.9-1.1-4.4z"/><path id="Fill-19" class="st0" d="M120.6 72.5s-15.9-4.9-18.6 10.1c-2.7 15 5.4 10.7 11.8 17l-13.5 44.7-1.3-15.1L78.2 105l-8-24.1 16.7-17.3 16.6-3.8 17.1 12.7z"/><path id="Fill-21" class="st1" d="M100.2 145.4c-.5 0-1-.4-1.1-1L98 129.6l-20.7-24.1-.1-.2L69 80.7l17.4-18 17.4-3.9 22.3 16.6-5.8-1.8c-.1 0-7.2-2.1-12.3 1-2.6 1.6-4.3 4.4-5 8.3-1.3 7.5 2.5 10 7.3 13.2 1.3.9 2.7 1.8 4 2.8.5.4.5 1 .2 1.5-.4.5-1 .5-1.5.2-1.2-1-2.6-1.9-3.9-2.7-4.8-3.1-9.9-6.4-8.3-15.3.8-4.5 2.8-7.7 6-9.7 3.1-1.9 6.7-2.2 9.5-2l-13-9.9-15.8 3.6-16.1 16.6 7.7 23.2 20.9 24.3 1.2 15.5c.1.6-.3 1.1-1 1.2.1 0 0 0 0 0"/><path id="Fill-23" class="st2" d="M100.2 144.3c-21.1 46.2-73.7 83-96.5 114.8C0 264.2.2 271.1 4 276c3.3 4.2 8.7 6.2 14 5.1 46.9-9.9 89.3-30 126.8-95.7 9.1-16 15.6-31.1 20.1-45l-54.2-9.6-10.5 13.5z"/><path id="Fill-25" class="st1" d="M77.8 259.8c-.4 0-.7-.2-.9-.5-.3-.5-.1-1.2.4-1.5 3.5-2 6.8-4.2 9.8-6.3.5-.3 1.1-.2 1.5.3.3.5.2 1.1-.3 1.5-3.1 2.2-6.5 4.4-10 6.4-.1 0-.3.1-.5.1"/><path id="Fill-27" class="st1" d="M15.1 282.5c-4.6 0-9.1-2.1-12-5.8-4.1-5.3-4.3-12.7-.4-18.1 8.6-12 21.6-24.8 35.2-38.4 22.5-22.3 48.1-47.6 61.2-76.3 15.3-33.5 17.9-75.1 18.3-91.5.1-2.2.1-4.5.1-6.6v-3.1c-.1-7-.4-13.4-1-19.2-.6-5.6 1.1-11.1 4.7-15.4 3.6-4.3 8.8-6.9 14.4-7.3 4.8-.3 9.5 1.1 13.4 4 13.6 10.2 22.6 45.1 23 46.6 3.6 14.4 12.5 66.6-26.2 134.5-9.5 16.7-21.5 32.5-35.7 47.1-.4.4-1.1.4-1.5 0-.4-.4-.4-1.1 0-1.5 14.1-14.4 26-30.1 35.4-46.6 38.3-67.2 29.6-118.7 26-132.9-.5-1.9-3.2-12.2-7.7-23-4.6-11.1-9.6-18.8-14.4-22.4C144.5 4 140.2 2.7 136 3c-5.1.3-9.7 2.7-12.9 6.5-3.3 3.9-4.8 8.8-4.3 13.8.6 5.9 1 12.4 1 19.4v3.1c0 2.2 0 4.4-.1 6.7-.4 16.5-3 58.5-18.4 92.3-13.3 29-39 54.5-61.6 76.9-13.6 13.5-26.5 26.2-35 38.1-3.3 4.7-3.2 11.1.3 15.6 3 3.9 8.1 5.7 12.9 4.7 15-3.2 40.7-12.8 51.8-18.1.5-.3 1.2 0 1.4.5.3.5 0 1.2-.5 1.4-11.2 5.3-37.2 15.1-52.3 18.3-1.1.2-2.1.3-3.2.3"/><path id="Fill-30" class="st2" d="M96.6 152c13.5-34.8-34.2-37.9-29.6-70 2.8-19.7 38-34.8 55.5-11.8 1 1.3-.6 3.3-1.9 2.3-10.2-7.8-35.7-14.4-45.2 5.6-12.2 25.7 38.2 40.9 28.3 62.1"/><path id="Fill-32" class="st1" d="M99.2 59.6c-2.8 0-5.7.4-8.6 1.1-12 3.1-21.3 11.9-22.6 21.4-2.1 14.4 6.7 22.6 15.9 31.2 8.9 8.3 18.1 16.9 15.8 31.4l3.1-5.1c4.3-9.4-4.3-17.8-13.4-26.6-10.2-9.9-21.7-21.2-15-35.4 3.3-6.9 8.6-11.3 15.7-13 10.9-2.6 23.8 1.5 31.1 7 0 0 .1.1.3-.1.2-.2.3-.5.1-.8-5.6-7.2-13.5-11.1-22.4-11.1zm-1.7 92.9l-1.9-.9c6.9-17.9-2.8-27-13.1-36.7-9.2-8.6-18.8-17.6-16.6-33.1C67.4 71.5 77.3 62 90.1 58.7c13-3.4 25.5.6 33.2 10.8.9 1.2.5 2.7-.3 3.5-.9.9-2.1 1-3.1.3-6.6-5.1-19.2-9.1-29.3-6.7-6.5 1.6-11.3 5.6-14.3 11.9-6.1 12.8 4.4 23.1 14.6 33 9.7 9.4 18.8 18.4 13.8 29.1l-.1.1-7.1 11.8z"/><path id="Fill-34" class="st0" d="M90.9 160.5c6.1-9.7 20.2-35.6 22.1-28.7 1.9 6.9-9.3 45.3-23.1 69-6 9.6 35.2 20.2 45.7 13.1 9.8-6.6 34.2-23.1 43.7-57.9 1.3-4.7-1.5-10-6-11.8-12.3-4.7-31.2-12.4-47.7-17.5-5.3-1.6-11-.1-14.7 4-9.4 10.2-20 29.8-20 29.8"/><path id="Fill-36" class="st1" d="M113.4 130.1c.3.3.5.8.6 1.6 1.1 7.4-9.4 45.9-23.3 69.7-.3.5-1.3 2 1.2 4.4 7.2 7 35 12.7 43 7.4 33.9-22.8 40.7-47.9 43.3-57.3 1.1-4.2-1.3-9-5.4-10.5-2.6-1-5.4-2.1-8.5-3.3-10.8-4.2-24.3-9.5-36.8-13.4-5-1.6-10.2-1-14.1 1.4m11 87.3c-3.4 0-7.4-.4-11.6-1.1-9.9-1.8-18.7-5.3-22.4-8.9-3.2-3.1-2.3-5.7-1.5-7 13.9-23.8 23.9-61.9 23-68.3 0-.2-.1-.3-.1-.4-.6.3-1.6 1.3-2.8 2.9-3.3 5-6.8 10.3-9.7 14.8v.1c-2.8 4.6-5.5 8.9-7.6 11.8-.3.5-1 .6-1.5.3s-.6-1-.3-1.4c.1-.1 3.2-5.1 7.6-11.8 4.2-6.8 7.3-11.7 9.7-14.7.1-.2.3-.4.4-.6 4.1-6.2 12.6-8.7 20.6-6.2 12.5 4 26 9.2 36.9 13.4 3.1 1.2 5.9 2.3 8.4 3.3 5.1 1.9 8.1 7.8 6.7 13-9.6 35.3-34.7 52.2-44.1 58.5-2.5 1.4-6.6 2.3-11.7 2.3"/><path id="Fill-38" class="st5" d="M186.9 78.2c-1.1.4-5.3.4-6.7.2-.3 0-.4-.3-.2-.5.9-1.1 3.9-4.1 5-4.5 1.3-.5 2.9.1 3.4 1.4s-.1 2.8-1.5 3.4"/><path id="Fill-40" class="st5" d="M194.7 94.7c-.7-.4-2.6-2.8-3.2-3.7-.1-.2 0-.4.2-.4 1 0 4.1.3 4.8.7.9.5 1.2 1.7.7 2.6-.4.9-1.6 1.3-2.5.8"/><path id="Fill-42" class="st5" d="M107.8 83.4c.5-.6 3.3-2 4.3-2.4.2-.1.4.1.3.3-.2 1-1.2 3.9-1.7 4.6-.7.8-1.9.9-2.7.2-.8-.7-.9-1.9-.2-2.7"/><path id="Fill-44" class="st1" d="M29.2 265.8c-.4 0-.7-.2-.9-.5-.3-.5-.1-1.2.4-1.4 25.1-13.9 43.5-27.5 59.8-44.2.4-.4 1.1-.4 1.5 0 .4.4.4 1.1 0 1.5-16.4 16.8-35 30.6-60.3 44.5-.2 0-.4.1-.5.1"/><path id="Fill-46" class="st1" d="M129.9 77.6h-.6c-2-.2-3.8-1.1-5.1-2.6s-1.9-3.5-1.8-5.5c0-.6.6-1 1.1-1 .6 0 1 .6 1 1.1-.1 1.4.3 2.8 1.3 3.9.9 1.1 2.2 1.8 3.7 1.9 1.4.1 2.8-.3 3.9-1.3s1.8-2.2 1.9-3.7c0-.6.6-1 1.1-1 .6 0 1 .6 1 1.1-.2 2-1.1 3.8-2.6 5.1-1.4 1.4-3.1 2-4.9 2"/><path id="Fill-48" class="st1" d="M151.2 99.4s-.1 0 0 0c-.7-.1-1.1-.6-1.1-1.1.2-2.4-.5-4.7-2.1-6.5-1.5-1.8-3.7-2.9-6.1-3.1-2.4-.2-4.7.5-6.5 2.1-1.8 1.5-2.9 3.7-3.1 6.1 0 .6-.6 1-1.1 1-.6 0-1-.6-1-1.1.2-2.9 1.6-5.6 3.9-7.5 2.3-1.9 5.1-2.8 8.1-2.6 2.9.2 5.6 1.6 7.5 3.9 1.9 2.3 2.8 5.1 2.6 8.1-.1.2-.6.7-1.1.7"/><path id="Fill-50" class="st1" d="M154.3 75.9c-1.9 0-3.6-.7-5-1.9-1.5-1.3-2.4-3.2-2.5-5.2 0-.6.4-1.1 1-1.1s1.1.4 1.1 1c.2 3 2.7 5.3 5.7 5.1 3-.2 5.3-2.7 5.1-5.7 0-.6.4-1.1 1-1.1s1.1.4 1.1 1c.2 4.1-3 7.7-7.1 7.9h-.4"/></g><g id="Bubble" transform="translate(257 29)"><path id="Rectangle-5" class="st0" d="M1 7c0-3.3 2.7-6 6-6h303c3.3 0 6 2.7 6 6v91c0 3.3-2.7 6-6 6H39.4l-20 9.6 5.3-10.6H7c-3.3 0-6-2.7-6-6V7z"/><path id="Path-2" class="st6" d="M285.5 104h24.7c4.2 0 5.7-2.3 5.7-6.1V7.1c0-3.9-1.8-6.2-6.4-6.2S11.5 1 6.9 1C1.9 1 0 3.6 0 8.1v85.8C0 99.7 1.1 104 7.9 104h17.5l-7.8 11 21.8-11h209.7m7.6 0h10.8"/><g class="st7"><path class="st1" d="M22.6 42l.8-1.2c.2-.4.7-.5 1-.2 1.4 1.2 2.5 2.1 4.8 2.1 2.1 0 3.4-1.3 3.4-2.8 0-1.8-1.6-2.9-4.5-4.2-3.1-1.3-5.5-2.9-5.5-6.4 0-2.3 1.8-5.5 6.6-5.5 3 0 5.3 1.6 5.5 1.8.2.2.5.6.2 1l-.8 1.1c-.2.4-.6.6-1 .3-1.2-.8-2.3-1.5-4.1-1.5-2.5 0-3.4 1.6-3.4 2.7 0 1.7 1.3 2.8 3.8 3.8 3.5 1.4 6.4 3.1 6.4 6.7 0 3.1-2.8 5.7-6.7 5.7-3.7 0-6-1.9-6.4-2.4-.2-.3-.4-.5-.1-1zm22.9-11.2c3.9 0 7.1 3.3 7.1 7.2 0 4-3.2 7.3-7.1 7.3-3.9 0-7.1-3.3-7.1-7.3 0-3.9 3.2-7.2 7.1-7.2zm0 11.7c2.3 0 4.1-1.9 4.1-4.4 0-2.5-1.8-4.3-4.1-4.3s-4.1 1.9-4.1 4.3c-.1 2.5 1.7 4.4 4.1 4.4zm10.4-10.7c0-.3.3-.7.7-.7h.7c.3 0 .5.2.6.5l.4 1.3c.2-.4 1.7-2 4.2-2 1.3 0 3 .4 2.5 1.3l-.7 1.5c-.3.3-.6.4-.9.3-.2-.1-.8-.3-1.3-.3-2 0-3.2 1.6-3.3 1.9v8.8c0 .6-.4.7-1 .7h-1.4c-.4 0-.7-.3-.7-.7V31.8zm11.5 0c0-.3.3-.7.7-.7h.7c.3 0 .5.2.6.5l.4 1.3c.2-.4 1.7-2 4.2-2 1.3 0 3 .4 2.5 1.3l-.7 1.5c-.2.3-.5.4-.8.3-.2-.1-.8-.3-1.3-.3-2 0-3.2 1.6-3.3 1.9v8.8c0 .6-.4.7-1 .7H68c-.4 0-.7-.3-.7-.7V31.8zm10.2.2c-.2-.5.1-.9.6-.9h2c.2 0 .5.2.6.4L84 41h.1l3.9-9.5c.1-.3.4-.4.7-.4h1.9c.6 0 .8.4.6.9l-8.5 19.7c-.1.2-.3.4-.6.4h-1.9c-.5 0-.8-.5-.6-.9l2.8-6.7L77.6 32zm16.9 8.8c1.5 0 2.7 1.4 2.7 3.7 0 2.6-1.1 4.6-2.2 5.9-.2.2-.4.2-.6.1l-.8-.6c-.2-.2-.2-.4 0-.6.9-1.1 1.6-2.5 1.6-3.8 0-.4 0-.6-.2-.8-.2.2-.6.3-1 .3-1.2 0-1.8-.9-1.8-2 .1-1.3 1-2.2 2.3-2.2zm13.3-9c0-.3.3-.7.7-.7h.7c.3 0 .5.2.6.4l.4 1.2c.3-.4 1.9-1.9 4.6-1.9 4.2 0 5.4 2.9 5.4 6.5v7c0 .4-.3.7-.7.7h-1.7c-.4 0-.7-.3-.7-.7v-7.1c0-2.2-.9-3.6-2.7-3.6-2.2 0-3.5 1.5-3.7 2v8.6c0 .5-.2.7-.8.7h-1.5c-.4 0-.7-.3-.7-.7V31.8zm22.7-1c3.9 0 7 3.3 7 7.2 0 4-3.2 7.3-7 7.3-3.9 0-7.1-3.3-7.1-7.3 0-3.9 3.2-7.2 7.1-7.2zm0 11.7c2.3 0 4.1-1.9 4.1-4.4 0-2.5-1.8-4.3-4.1-4.3s-4.1 1.9-4.1 4.3c0 2.5 1.8 4.4 4.1 4.4zm17.6-10.7c0-.3.3-.7.7-.7h.7c.3 0 .5.2.6.5l.4 1.3c.2-.4 1.7-2 4.2-2 1.3 0 3 .4 2.5 1.3l-.7 1.5c-.2.4-.5.5-.8.3-.2-.1-.8-.3-1.3-.3-2 0-3.1 1.6-3.3 1.9v8.8c0 .6-.4.7-1 .7h-1.4c-.4 0-.7-.3-.7-.7V31.8zm17.2-1c3.6 0 6.3 2.7 6.3 6.4 0 .2 0 .7-.1 1 0 .4-.3.6-.6.6h-9.6c0 1.9 1.7 3.8 4.1 3.8 1.6 0 2.5-.6 3.4-1.2.3-.2.6-.3.8.1l.8 1.3c.2.3.4.6-.1.9-1 .9-2.8 1.7-5.1 1.7-4.2 0-6.9-3.3-6.9-7.3.1-3.9 2.9-7.3 7-7.3zm3.4 5.7c-.1-1.7-1.4-3.1-3.4-3.1-2.2 0-3.5 1.4-3.7 3.1h7.1zm12.3-5.7c2.2 0 3.8.8 5 2.4.3.3.2.7-.1 1l-1.1 1c-.4.4-.7.1-.9-.2-.6-.7-1.7-1.4-2.8-1.4-2.4 0-4.2 1.9-4.2 4.4 0 2.5 1.8 4.4 4.1 4.4 1.8 0 2.5-1 3.3-1.7.3-.3.6-.3.9-.1l.9.8c.3.3.5.6.2 1-1.1 1.7-3 2.9-5.4 2.9-3.9 0-7.1-3.1-7.1-7.2.1-4.1 3.4-7.3 7.2-7.3zm8.1-4.6c0-1.1.9-2 2-2s2 .9 2 2-.9 2-2 2-2-.9-2-2zm.5 5.6c0-.3.3-.7.7-.7h1.7c.3 0 .7.3.7.7v12.5c0 .4-.3.7-.7.7h-1.7c-.4 0-.7-.3-.7-.7V31.8zm10.2 19.7c0 .4-.3.7-.7.7h-1.7c-.4 0-.7-.3-.7-.7V31.8c0-.3.3-.7.7-.7h.8c.3 0 .5.1.6.5l.4.9c.2-.2 1.8-1.6 4.3-1.6 3.8 0 6.5 3.3 6.5 7.2 0 4-2.9 7.3-6.7 7.3-1.8 0-3.3-.8-3.5-1v7.1zm3.2-9c2.2 0 4-1.9 4-4.4 0-2.5-1.6-4.4-3.9-4.4-2 0-3.2 1.5-3.3 2v5.8s1.3 1 3.2 1zm16.4-11.7c3.6 0 6.3 2.7 6.3 6.4 0 .2 0 .7-.1 1 0 .4-.3.6-.6.6h-9.6c0 1.9 1.7 3.8 4.1 3.8 1.6 0 2.5-.6 3.4-1.2.3-.2.6-.3.8.1l.8 1.3c.2.3.4.6-.1.9-1 .9-2.8 1.7-5.1 1.7-4.2 0-6.9-3.3-6.9-7.3.1-3.9 2.9-7.3 7-7.3zm3.4 5.7c-.1-1.7-1.4-3.1-3.4-3.1-2.2 0-3.5 1.4-3.7 3.1h7.1zm5.6 7.4c-.2-.1-.4-.4-.2-.7l.6-1.3c.1-.3.5-.4.9-.2.8.4 1.8 1 3.5 1 1.2 0 1.8-.6 1.8-1.3 0-.9-1.1-1.5-3-2.4-2.1-1-3.8-2.1-3.8-4.4 0-1.7 1.2-3.8 4.6-3.8 1.9 0 3.4.6 4.1 1 .3.2.5.7.3 1l-.5 1c-.2.4-.6.4-.9.3-1-.4-1.9-.7-3-.7-1.2 0-1.8.6-1.8 1.2 0 .9 1 1.4 2.4 2 2.5 1.1 4.5 2 4.5 4.6 0 2.2-1.9 4-4.9 4-2.3.1-3.9-.7-4.6-1.3z"/></g><g class="st7"><path class="st1" d="M23.1 66.8c0-.3.3-.7.7-.7h.7c.3 0 .5.2.6.4l.4 1.2c.3-.3 1.8-1.9 4.4-1.9 2 0 3.2.8 4.2 2.2.4-.4 2-2.2 4.7-2.2 4.2 0 5.3 2.9 5.3 6.5v7c0 .4-.3.7-.7.7h-1.7c-.4 0-.7-.3-.7-.7v-7.1c0-2.2-.8-3.6-2.7-3.6-2.1 0-3.1 1.4-3.3 1.6.1.3.1 1.1.1 1.9v7.2c0 .4-.3.7-.6.7h-1.7c-.4 0-.7-.3-.7-.7v-7.1c0-2.2-.8-3.6-2.7-3.6-2.1 0-3.1 1.5-3.3 2v8.6c0 .4-.3.7-.7.7h-1.7c-.4 0-.7-.3-.7-.7V66.8zm29.5 4.4c1.4 0 2.8.4 2.8.4.1-2.2-.5-3.2-2.2-3.2-1.6 0-3.2.5-3.9.7-.4.1-.7-.2-.8-.6l-.3-1.1c-.1-.5.1-.7.4-.8.2-.1 2.2-.8 4.8-.8 4.4 0 4.9 2.7 4.9 6.1v7.4c0 .4-.3.7-.7.7h-1c-.3 0-.4-.1-.6-.5l-.3-.9c-.8.7-2.1 1.7-4.3 1.7-2.6 0-4.5-1.7-4.5-4.6.1-2.5 2.1-4.5 5.7-4.5zm-.5 6.7c1.4 0 2.8-1 3.2-1.7v-2.3c-.2-.1-1.3-.5-2.5-.5-1.6 0-2.9.8-2.9 2.3.1 1.2.8 2.2 2.2 2.2zm11.2-9.2h-1.6c-.4 0-.7-.3-.7-.7v-1.2c0-.4.3-.7.7-.7h1.6v-3.9c0-.4.3-.7.7-.7h1.7c.4 0 .6.3.6.7v3.9H70c.4 0 .7.3.7.7V68c0 .3-.3.7-.7.7h-3.7v7.4c0 1.2.5 1.4 1.1 1.4.9 0 1.7-.4 2.2-.7.4-.2.7 0 .8.3l.5 1.4c.1.4 0 .6-.3.8-.6.4-2.2 1-3.8 1-2.8 0-3.5-1.7-3.5-4.1v-7.5zM80 65.8c2.2 0 3.8.8 5 2.4.3.3.2.7-.1 1l-1.1 1c-.4.4-.7.1-.9-.2-.6-.7-1.7-1.4-2.8-1.4-2.4 0-4.2 1.9-4.2 4.4 0 2.5 1.8 4.4 4.1 4.4 1.8 0 2.5-1 3.3-1.7.3-.3.6-.3.9-.1l.9.8c.3.3.5.6.2 1-1.1 1.7-3 2.9-5.4 2.9-3.9 0-7.1-3.1-7.1-7.2.1-4.1 3.4-7.3 7.2-7.3zm8.6-6.1c0-.3.3-.7.7-.7H91c.3 0 .7.3.7.7v7.6c.3-.2 1.8-1.4 4-1.4 3.9 0 5.4 2.8 5.4 6.5v7c0 .4-.3.7-.7.7h-1.7c-.4 0-.7-.3-.7-.7v-7c0-2.3-1-3.6-2.8-3.6-2.1 0-3.3 1.4-3.6 2v8.6c0 .4-.3.7-.7.7h-1.7c-.4 0-.7-.3-.7-.7V59.7zm22.5 6.1c3.6 0 6.3 2.7 6.3 6.4 0 .2 0 .7-.1 1 0 .4-.3.6-.6.6h-9.6c0 1.9 1.7 3.8 4.1 3.8 1.6 0 2.6-.6 3.4-1.2.3-.2.6-.3.8.1l.8 1.3c.2.3.4.6-.1.9-1 .9-2.8 1.7-5.1 1.7-4.2 0-6.9-3.3-6.9-7.3.1-3.9 2.8-7.3 7-7.3zm3.3 5.7c-.1-1.7-1.4-3.1-3.4-3.1-2.2 0-3.5 1.4-3.7 3.1h7.1zm12-5.7c1.8 0 3.2.6 3.5.7v-6.9c0-.3.3-.7.7-.7h1.7c.4 0 .7.3.7.7v19.7c0 .4-.3.7-.7.7h-.7c-.3 0-.5-.2-.6-.6l-.3-1s-1.8 2-4.6 2c-3.7 0-6.3-3.3-6.3-7.3-.1-4.1 2.7-7.3 6.6-7.3zm0 11.7c2.1 0 3.3-1.7 3.5-2v-5.9s-1.4-.8-3.2-.8c-2.3 0-4 2-4 4.4 0 2.2 1.5 4.3 3.7 4.3zM142.9 67c-.2-.5.1-.9.6-.9h2c.2 0 .5.2.6.4l3.2 9.5h.1l3.9-9.5c.1-.3.4-.4.7-.4h1.9c.6 0 .8.4.6.9L148 86.7c-.1.2-.3.4-.6.4h-1.9c-.5 0-.8-.5-.6-.9l2.8-6.7-4.8-12.5zm22.2-1.2c3.9 0 7.1 3.3 7.1 7.2 0 4-3.2 7.3-7.1 7.3-3.9 0-7.1-3.3-7.1-7.3 0-3.9 3.2-7.2 7.1-7.2zm0 11.7c2.3 0 4.1-1.9 4.1-4.4 0-2.5-1.8-4.3-4.1-4.3s-4.1 1.9-4.1 4.3c-.1 2.5 1.7 4.4 4.1 4.4zm10.2-10.7c0-.3.3-.7.7-.7h1.7c.4 0 .7.3.7.7v7.4c0 2.3.9 3.3 2.7 3.3 2 0 3.1-1.7 3.2-2.3v-8.4c0-.6.3-.7.8-.7h1.5c.4 0 .7.3.7.7v12.5c0 .4-.3.7-.7.7h-.7c-.4 0-.5-.2-.6-.6l-.4-1c-.3.3-1.6 1.9-4.4 1.9-4.1 0-5.2-2.7-5.2-6.4v-7.1zm16.1 0c0-.3.3-.7.7-.7h.7c.3 0 .5.2.6.5l.4 1.3c.2-.4 1.7-2 4.2-2 1.3 0 3 .4 2.5 1.3l-.7 1.5c-.2.4-.5.5-.8.3-.2-.1-.8-.3-1.3-.3-2 0-3.2 1.6-3.3 1.9v8.8c0 .6-.4.7-1 .7H192c-.4 0-.7-.3-.7-.7V66.8zM209 78.9c-.2-.1-.4-.4-.2-.7l.6-1.3c.1-.3.5-.4.9-.2.8.4 1.8 1 3.5 1 1.2 0 1.8-.6 1.8-1.3 0-.9-1.1-1.5-3-2.4-2.1-1-3.8-2.1-3.8-4.4 0-1.7 1.2-3.8 4.6-3.8 1.9 0 3.4.6 4.1 1 .3.2.5.7.3 1l-.5 1c-.2.4-.6.4-.9.3-1-.4-1.9-.7-3-.7-1.2 0-1.8.6-1.8 1.2 0 .9 1 1.4 2.4 2 2.5 1.1 4.5 2 4.5 4.6 0 2.2-1.9 4-4.9 4-2.3.1-3.8-.7-4.6-1.3zm18.7-13.1c3.6 0 6.3 2.7 6.3 6.4 0 .2 0 .7-.1 1 0 .4-.3.6-.6.6h-9.6c0 1.9 1.7 3.8 4.1 3.8 1.6 0 2.6-.6 3.4-1.2.3-.2.6-.3.8.1l.8 1.3c.2.3.4.6-.1.9-1 .9-2.8 1.7-5.1 1.7-4.2 0-6.9-3.3-6.9-7.3.1-3.9 2.9-7.3 7-7.3zm3.4 5.7c-.1-1.7-1.4-3.1-3.4-3.1-2.2 0-3.5 1.4-3.7 3.1h7.1zm10.6-.3c1.4 0 2.8.4 2.8.4.1-2.2-.5-3.2-2.2-3.2-1.6 0-3.1.5-3.9.7-.4.1-.7-.2-.8-.6l-.3-1.1c-.1-.5.1-.7.5-.8.2-.1 2.2-.8 4.8-.8 4.4 0 4.9 2.7 4.9 6.1v7.4c0 .4-.3.7-.7.7h-1c-.3 0-.4-.1-.6-.5l-.3-.9c-.8.7-2.1 1.7-4.3 1.7-2.6 0-4.5-1.7-4.5-4.6.1-2.5 2-4.5 5.6-4.5zm-.4 6.7c1.4 0 2.8-1 3.2-1.7v-2.3c-.2-.1-1.3-.5-2.5-.5-1.6 0-2.8.8-2.8 2.3-.1 1.2.6 2.2 2.1 2.2zm10.2-11.1c0-.3.3-.7.7-.7h.7c.3 0 .5.2.6.5l.4 1.3c.2-.4 1.7-2 4.2-2 1.3 0 3 .4 2.5 1.3l-.7 1.5c-.2.4-.5.5-.8.3-.2-.1-.8-.3-1.3-.3-2 0-3.1 1.6-3.3 1.9v8.8c0 .6-.4.7-1 .7h-1.4c-.4 0-.7-.3-.7-.7V66.8zm17.4-1c2.2 0 3.8.8 5 2.4.3.3.2.7-.1 1l-1.1 1c-.4.4-.7.1-.9-.2-.6-.7-1.7-1.4-2.9-1.4-2.4 0-4.2 1.9-4.2 4.4 0 2.5 1.8 4.4 4.1 4.4 1.8 0 2.5-1 3.3-1.7.3-.3.6-.3.9-.1l.9.8c.3.3.5.6.2 1-1.1 1.7-3 2.9-5.4 2.9-3.9 0-7.1-3.1-7.1-7.2.2-4.1 3.5-7.3 7.3-7.3zm8.6-6.1c0-.3.3-.7.7-.7h1.7c.3 0 .7.3.7.7v7.6c.3-.2 1.8-1.4 4-1.4 3.9 0 5.4 2.8 5.4 6.5v7c0 .4-.3.7-.7.7h-1.7c-.4 0-.7-.3-.7-.7v-7c0-2.3-1-3.6-2.8-3.6-2.1 0-3.3 1.4-3.6 2v8.6c0 .4-.3.7-.7.7h-1.7c-.4 0-.7-.3-.7-.7V59.7zm18.1 15.8c1.3 0 2.4 1.1 2.4 2.4 0 1.3-1.1 2.4-2.4 2.4-1.3 0-2.4-1.1-2.4-2.4 0-1.3 1.1-2.4 2.4-2.4z"/></g></g></g></g></g></svg>